<?xml version="1.0" encoding="iso-8859-1"?>
<!-- Generator: Adobe Illustrator 19.0.0, SVG Export Plug-In . SVG Version: 6.00 Build 0)  -->
<svg version="1.1" id="Layer_1" xmlns="http://www.w3.org/2000/svg" xmlns:xlink="http://www.w3.org/1999/xlink" x="0px" y="0px"
	 viewBox="0 0 512.016 512.016" style="enable-background:new 0 0 512.016 512.016;" xml:space="preserve">
<g>
	<g>
		<path d="M501.352,245.336h-64c-5.906,0-10.688,4.773-10.688,10.664s4.781,10.672,10.688,10.672h63.984c0,0,0,0,0.016,0
			c5.875,0,10.656-4.781,10.656-10.672S507.227,245.336,501.352,245.336z"/>
	</g>
</g>
<g>
	<g>
		<path d="M74.672,245.336H10.68h-0.008c-5.891,0-10.664,4.774-10.664,10.664s4.773,10.672,10.664,10.672h63.992h0.008
			c5.891,0,10.672-4.781,10.672-10.664C85.344,250.117,80.563,245.336,74.672,245.336z"/>
	</g>
</g>
<g>
	<g>
		<path d="M437.04,74.984c-4.188-4.164-10.938-4.164-15.094,0l-45.25,45.25v0.008c-4.172,4.164-4.172,10.914,0,15.086
			c4.156,4.164,10.906,4.164,15.078,0l0.016-0.016l45.218-45.234c0.016,0,0.016-0.008,0.016-0.008
			C441.196,85.906,441.196,79.148,437.04,74.984z"/>
	</g>
</g>
<g>
	<g>
		<path d="M135.328,376.688c-4.164-4.172-10.922-4.172-15.086,0c0,0,0,0-0.008,0l-45.242,45.234c0,0,0,0.016-0.008,0.016
			c-4.164,4.172-4.164,10.922,0,15.078c4.172,4.172,10.922,4.172,15.086,0c0,0,0,0,0.008,0l45.234-45.234l0.016-0.016
			C139.492,387.61,139.492,380.86,135.328,376.688z"/>
	</g>
</g>
<g>
	<g>
		<path d="M256.008,0c-5.891,0-10.664,4.781-10.664,10.672v63.984c0,0.008,0,0.008,0,0.008c0,5.899,4.773,10.672,10.664,10.672
			s10.664-4.773,10.664-10.664v-64C266.672,4.781,261.899,0.008,256.008,0z"/>
	</g>
</g>
<g>
	<g>
		<path d="M256.008,426.672c-5.891,0-10.664,4.781-10.664,10.656v0.031v63.969c0,5.906,4.773,10.672,10.664,10.688
			c5.891,0,10.664-4.781,10.664-10.688v-64C266.672,431.453,261.899,426.672,256.008,426.672z"/>
	</g>
</g>
<g>
	<g>
		<path d="M135.328,120.242l-45.25-45.257c-4.172-4.164-10.922-4.164-15.094,0c-4.164,4.164-4.156,10.922,0,15.086
			c0.008-0.001,0.008-0.001,0.008,0.007l45.234,45.227c0,0,0.008,0.016,0.016,0.023c4.164,4.164,10.922,4.164,15.086,0
			C139.492,131.156,139.492,124.406,135.328,120.242z"/>
	</g>
</g>
<g>
	<g>
		<path d="M437.04,421.938l-0.016-0.016l-45.234-45.234l-0.016-0.016c-4.172-4.156-10.922-4.156-15.078,0
			c-4.172,4.172-4.172,10.938,0,15.094c0,0,0,0,0,0.016l45.25,45.234c4.156,4.172,10.906,4.172,15.094,0
			C441.196,432.86,441.196,426.11,437.04,421.938z"/>
	</g>
</g>
<g>
	<g>
		<path d="M256.008,106.672c-82.477,0-149.336,66.859-149.336,149.336s66.859,149.32,149.336,149.32
			c82.469,0,149.344-66.844,149.344-149.32S338.477,106.672,256.008,106.672z M346.508,346.516
			c-24.156,24.172-56.312,37.5-90.5,37.5s-66.336-13.328-90.508-37.5c-24.18-24.188-37.492-56.313-37.492-90.508
			s13.312-66.336,37.492-90.516c24.172-24.172,56.32-37.484,90.508-37.484s66.344,13.312,90.5,37.484
			c24.188,24.18,37.5,56.32,37.5,90.516S370.696,322.328,346.508,346.516z"/>
	</g>
</g>
<g>
</g>
<g>
</g>
<g>
</g>
<g>
</g>
<g>
</g>
<g>
</g>
<g>
</g>
<g>
</g>
<g>
</g>
<g>
</g>
<g>
</g>
<g>
</g>
<g>
</g>
<g>
</g>
<g>
</g>
</svg>
