<?xml version="1.0" encoding="iso-8859-1"?>
<!-- Generator: Adobe Illustrator 19.0.0, SVG Export Plug-In . SVG Version: 6.00 Build 0)  -->
<svg version="1.1" id="Layer_1" xmlns="http://www.w3.org/2000/svg" xmlns:xlink="http://www.w3.org/1999/xlink" x="0px" y="0px"
	 viewBox="0 0 512 512" style="enable-background:new 0 0 512 512;" xml:space="preserve">
<g>
	<g>
		<path d="M501.344,325.332H380.188c2.625-10.219,4.031-20.938,4.031-32c0-70.812-57.406-128.219-128.219-128.219
			S127.781,222.52,127.781,293.332c0,11.062,1.406,21.781,4.039,32H10.664C4.773,325.332,0,330.113,0,336.004
			s4.773,10.672,10.664,10.672h490.68c5.875,0,10.656-4.781,10.656-10.672S507.219,325.332,501.344,325.332z M358.03,325.332
			H153.977c-3.196-10.219-4.868-20.969-4.868-32c0-28.547,11.125-55.391,31.312-75.578c20.187-20.187,47.031-31.305,75.578-31.305
			s55.391,11.117,75.578,31.305c20.203,20.188,31.328,47.031,31.328,75.578C362.905,304.363,361.217,315.113,358.03,325.332z"/>
	</g>
</g>
<g>
	<g>
		<path d="M96,282.676H32c-5.891,0-10.664,4.781-10.664,10.656c0,5.906,4.773,10.672,10.664,10.672h64
			c5.891,0,10.664-4.766,10.664-10.672C106.664,287.457,101.891,282.676,96,282.676z"/>
	</g>
</g>
<g>
	<g>
		<path d="M480,282.676c0,0,0,0-0.031,0H416c-5.875,0-10.656,4.781-10.656,10.656c0,5.906,4.781,10.672,10.656,10.672
			c0,0,0,0,0.031,0H480c5.906,0,10.656-4.766,10.656-10.672C490.656,287.457,485.906,282.676,480,282.676z"/>
	</g>
</g>
<g>
	<g>
		<path d="M421.938,127.402c-4.156-4.164-10.906-4.164-15.094,0v0.023l-45.25,45.227v0.008c-4.156,4.164-4.156,10.914,0,15.086
			c4.156,4.164,10.937,4.164,15.094,0v-0.008l45.25-45.25C426.094,138.324,426.094,131.566,421.938,127.402z"/>
	</g>
</g>
<g>
	<g>
		<path d="M256,58.668c-5.891,0-10.672,4.781-10.664,10.672v0.023v63.977c0,5.891,4.773,10.664,10.664,10.664
			s10.664-4.773,10.664-10.664v-64C266.664,63.449,261.891,58.668,256,58.668z"/>
	</g>
</g>
<g>
	<g>
		<path d="M150.406,172.66l-0.008-0.008l-45.25-45.25c-4.164-4.164-10.914-4.164-15.086,0c-4.164,4.164-4.164,10.922,0,15.086
			c0.008,0.008,0.016,0.008,0.024,0.016l45.234,45.242c4.164,4.164,10.922,4.164,15.086,0S154.57,176.824,150.406,172.66z"/>
	</g>
</g>
<g>
	<g>
		<path d="M286.172,412.504c-4.172-4.172-10.922-4.172-15.086,0h-0.008l-4.414,4.422v-38.25c0-5.906-4.773-10.672-10.664-10.672
			s-10.672,4.766-10.672,10.672c0,0,0.008,0,0.008,0.031v38.219l-4.422-4.422c-4.164-4.172-10.922-4.172-15.086,0
			s-4.164,10.922,0,15.078c0.008,0.016,0.016,0.016,0.023,0.031l22.602,22.594c1.938,1.938,4.602,3.125,7.547,3.125
			s5.609-1.188,7.539-3.125l22.633-22.625C290.344,423.426,290.344,416.676,286.172,412.504z"/>
	</g>
</g>
<g>
</g>
<g>
</g>
<g>
</g>
<g>
</g>
<g>
</g>
<g>
</g>
<g>
</g>
<g>
</g>
<g>
</g>
<g>
</g>
<g>
</g>
<g>
</g>
<g>
</g>
<g>
</g>
<g>
</g>
</svg>
