<?xml version="1.0" encoding="iso-8859-1"?>
<!-- Generator: Adobe Illustrator 19.0.0, SVG Export Plug-In . SVG Version: 6.00 Build 0)  -->
<svg version="1.1" id="Capa_1" xmlns="http://www.w3.org/2000/svg" xmlns:xlink="http://www.w3.org/1999/xlink" x="0px" y="0px"
	 viewBox="0 0 408.8 408.8" style="enable-background:new 0 0 408.8 408.8;" xml:space="preserve">
<g>
	<g>
		<path d="M212.8,135.263c-42,0-76,34-76,76c-0.4,41.6,34,76,76,76s76-34,76-76S254.8,135.263,212.8,135.263z M212.8,276.463
			c-36,0-65.6-29.6-65.6-65.6s29.2-65.6,65.6-65.6c36,0,65.6,29.6,65.6,65.6C278.4,246.863,248.8,276.463,212.8,276.463z"/>
	</g>
</g>
<g>
	<g>
		<path d="M212.8,84.463c-69.6,0-126.4,56.8-126.4,126.4c0,69.6,56.4,126.4,126.4,126.4c69.6,0,126.4-56.8,126.4-126.4
			C339.2,141.263,282.4,84.463,212.8,84.463z M212.8,326.463c-64,0-115.6-52-115.6-115.6c-0.4-63.6,51.6-115.6,115.6-115.6
			s115.6,52,115.6,115.6C328.4,274.863,276.4,326.463,212.8,326.463z"/>
	</g>
</g>
<g>
	<g>
		<path d="M405.6,70.863c-2-0.8-4-0.8-5.6,0.8c-2,1.6-44.4,37.2-46.8,98.8c-1.2,31.6,10.8,49.2,22,58.8v91.6
			c0,9.2,7.6,16.8,16.8,16.8c9.2,0,16.8-7.6,16.8-16.8v-245.2C408.8,73.663,407.6,71.663,405.6,70.863z M398.8,320.863h-0.4
			c0,3.2-2.8,6-6,6s-6-2.8-6-6v-94.4c0-1.6-0.8-3.2-2-4c-14-10.8-20.8-28.4-19.6-51.6c1.6-40,22-68.8,34-82.4V320.863z"/>
	</g>
</g>
<g>
	<g>
		<path d="M76.4,70.463H60.8c-2.8,0-5.2,2.4-5.2,5.2v66.8c0,1.6-2.8,1.6-2.8,0v-66.8c0-2.8-2.4-5.2-5.2-5.2H34
			c-2.8,0-5.2,2.4-5.2,5.2v66.8c0,1.6-2.8,1.6-2.8,0v-66.8c0-2.8-2.4-5.2-5.2-5.2H5.2c-2.8,0-5.2,2.4-5.2,5.2v78.4
			c0,29.2,16.4,42.4,19.2,44.4l4.8,4.4v117.6c-0.8,10,7.2,18,16.4,18c9.6,0,17.2-8,17.2-18v-117.6l4.8-4.4
			c2.8-2,19.2-15.2,19.2-44.4v-78.4C81.6,72.863,79.2,70.463,76.4,70.463z M70.8,154.063c0,25.2-14.4,35.2-14.8,35.6
			c-0.4,0-0.4,0.4-0.4,0.4l-6.8,6.4c-1.2,1.2-1.6,2.4-1.6,4v120c0,4-2.8,7.2-6.4,7.2c-3.6,0-6.4-3.2-6.4-7.2v-120
			c0-1.6-0.8-2.8-1.6-4l-6.8-6l-0.4-0.4c-1.2-0.4-16-10.4-16-36v-73.2h5.2v61.2c0,6.8,5.2,12,12,12s12-5.2,12-12v-61.2h2.8v61.2
			c0,6.8,5.2,12,12,12c6.8,0,12-5.2,12-12v-61.2h5.2V154.063z"/>
	</g>
</g>
<g>
</g>
<g>
</g>
<g>
</g>
<g>
</g>
<g>
</g>
<g>
</g>
<g>
</g>
<g>
</g>
<g>
</g>
<g>
</g>
<g>
</g>
<g>
</g>
<g>
</g>
<g>
</g>
<g>
</g>
</svg>
