<?xml version="1.0" encoding="iso-8859-1"?>
<!-- Generator: Adobe Illustrator 19.0.0, SVG Export Plug-In . SVG Version: 6.00 Build 0)  -->
<svg version="1.1" id="Layer_1" xmlns="http://www.w3.org/2000/svg" xmlns:xlink="http://www.w3.org/1999/xlink" x="0px" y="0px"
	 viewBox="0 0 512 512" style="enable-background:new 0 0 512 512;" xml:space="preserve">
<g>
	<g>
		<path d="M501.344,325.328H380.188c2.625-10.219,4.031-20.938,4.031-32c0-70.805-57.406-128.211-128.219-128.211
			s-128.219,57.406-128.219,128.211c0,11.062,1.406,21.781,4.039,32H10.664C4.773,325.328,0,330.109,0,336
			s4.773,10.672,10.664,10.672h490.68c5.875,0,10.656-4.781,10.656-10.672S507.219,325.328,501.344,325.328z M358.03,325.328
			H153.977c-3.196-10.219-4.868-20.969-4.868-32c0-28.531,11.125-55.383,31.312-75.57c20.187-20.187,47.031-31.312,75.578-31.312
			s55.391,11.125,75.578,31.312s31.312,47.039,31.312,75.57C362.889,304.359,361.217,315.109,358.03,325.328z"/>
	</g>
</g>
<g>
	<g>
		<path d="M96,282.672H32c-5.891,0-10.664,4.781-10.664,10.656c0,5.906,4.773,10.688,10.664,10.688h64
			c5.891,0,10.664-4.781,10.664-10.688C106.664,287.453,101.891,282.672,96,282.672z"/>
	</g>
</g>
<g>
	<g>
		<path d="M480,282.672h-0.031H416c-5.891,0-10.656,4.781-10.656,10.656c0,5.906,4.766,10.672,10.656,10.688l0.016-0.016
			L480,304.016V304c5.891,0.016,10.656-4.766,10.656-10.672C490.656,287.453,485.89,282.672,480,282.672z"/>
	</g>
</g>
<g>
	<g>
		<path d="M421.938,127.406c-4.172-4.172-10.922-4.172-15.094,0l-0.016,0.016l-45.234,45.234c-4.156,4.164-4.156,10.922,0,15.086
			s10.922,4.164,15.094,0c0,0,0,0,0-0.008l45.25-45.25C426.094,138.32,426.094,131.57,421.938,127.406z"/>
	</g>
</g>
<g>
	<g>
		<path d="M256,58.672c-5.891,0-10.672,4.773-10.664,10.664c0,0.008,0,0.016,0,0.031v63.969c0,5.891,4.773,10.664,10.664,10.664
			c5.891,0.008,10.664-4.773,10.664-10.664v-64C266.664,63.445,261.891,58.672,256,58.672z"/>
	</g>
</g>
<g>
	<g>
		<path d="M150.406,172.656c-0.008,0-0.008-0.008-0.008-0.008l-45.25-45.242c-4.164-4.172-10.914-4.172-15.086,0
			c-4.164,4.164-4.164,10.922,0,15.086c0.008,0,0.016,0.008,0.024,0.016l45.234,45.234c4.164,4.164,10.922,4.164,15.086,0
			S154.57,176.828,150.406,172.656z"/>
	</g>
</g>
<g>
	<g>
		<path d="M286.172,393.75l-0.016-0.016l-22.609-22.609h-0.008c-1.93-1.922-4.594-3.125-7.539-3.125s-5.609,1.203-7.539,3.125
			l-22.633,22.625c-4.164,4.172-4.164,10.922,0,15.078c4.164,4.172,10.922,4.172,15.086,0h0.008l4.414-4.406v38.25
			c0,5.891,4.773,10.656,10.664,10.656s10.664-4.766,10.664-10.656c0,0,0-0.016,0-0.031v-38.219l4.422,4.406
			c4.164,4.188,10.914,4.188,15.086,0C290.344,404.672,290.344,397.922,286.172,393.75z"/>
	</g>
</g>
<g>
</g>
<g>
</g>
<g>
</g>
<g>
</g>
<g>
</g>
<g>
</g>
<g>
</g>
<g>
</g>
<g>
</g>
<g>
</g>
<g>
</g>
<g>
</g>
<g>
</g>
<g>
</g>
<g>
</g>
</svg>
