<?xml version="1.0" standalone="no"?>
<!DOCTYPE svg PUBLIC "-//W3C//DTD SVG 20010904//EN"
 "http://www.w3.org/TR/2001/REC-SVG-20010904/DTD/svg10.dtd">
<svg version="1.0" xmlns="http://www.w3.org/2000/svg"
 width="250.000000pt" height="250.000000pt" viewBox="0 0 250.000000 250.000000"
 preserveAspectRatio="xMidYMid meet">
<metadata>
Created by potrace 1.16, written by Peter Selinger 2001-2019
</metadata>
<g transform="translate(0.000000,250.000000) scale(0.100000,-0.100000)"
fill="#000000" stroke="none">
<path d="M570 1931 c0 -18 8 -20 82 -23 l82 -3 78 -159 79 -159 -57 -124 c-32
-68 -61 -123 -65 -123 -4 0 -34 7 -66 15 -105 27 -227 14 -326 -36 -57 -30
-158 -129 -190 -187 -119 -220 -44 -489 174 -625 93 -57 254 -74 368 -38 160
50 283 187 314 350 l12 61 97 0 c67 0 101 4 110 13 7 8 85 149 173 315 87 166
162 298 166 294 4 -4 24 -47 45 -96 l38 -89 -30 -20 c-105 -73 -184 -197 -205
-319 -23 -141 31 -297 139 -400 103 -98 204 -134 354 -126 76 5 100 11 161 41
151 75 244 207 263 375 14 129 -45 282 -144 373 -123 114 -277 154 -434 113
-33 -8 -61 -14 -63 -12 -2 2 -174 411 -192 456 -8 20 246 17 275 -4 42 -29 21
-96 -33 -106 -32 -5 -26 -42 8 -46 39 -5 97 54 97 97 0 47 -27 91 -65 107 -51
21 -333 20 -341 -1 -4 -9 12 -60 35 -115 22 -54 41 -104 41 -109 0 -8 -97 -11
-308 -11 l-307 0 -73 145 c-39 80 -72 147 -72 150 0 2 37 5 83 7 65 2 82 6 82
18 0 13 -29 15 -192 18 -187 2 -193 2 -193 -17z m990 -371 c0 -13 -303 -589
-310 -590 -6 0 -290 581 -290 593 0 4 135 7 300 7 201 0 300 -3 300 -10z
m-556 -203 c43 -89 107 -222 142 -294 l63 -133 -78 0 -79 0 -7 55 c-12 103
-101 242 -198 310 l-29 20 48 103 c26 56 50 102 53 102 3 0 41 -74 85 -163z
m-282 -55 l27 -11 -89 -187 c-50 -102 -90 -192 -90 -199 0 -22 26 -25 232 -25
l201 0 -6 -44 c-16 -114 -108 -239 -219 -294 -209 -105 -452 -23 -555 186 -37
73 -38 80 -38 182 0 99 2 109 33 172 54 110 152 194 261 225 53 15 202 12 243
-5z m1341 -11 c131 -51 242 -202 254 -346 26 -320 -305 -547 -594 -405 -208
103 -290 357 -181 562 31 58 127 158 152 158 7 0 48 -82 91 -184 70 -169 92
-206 109 -189 14 14 3 48 -69 218 -42 98 -72 182 -68 186 36 35 216 34 306 0z
m-1206 -68 c24 -19 56 -53 71 -76 35 -51 72 -147 72 -187 l0 -30 -185 0 -184
0 53 113 c93 195 109 226 120 220 6 -3 30 -21 53 -40z"/>
</g>
</svg>
