<?xml version="1.0" standalone="no"?>
<!DOCTYPE svg PUBLIC "-//W3C//DTD SVG 20010904//EN"
 "http://www.w3.org/TR/2001/REC-SVG-20010904/DTD/svg10.dtd">
<svg version="1.0" xmlns="http://www.w3.org/2000/svg"
 width="250.000000pt" height="250.000000pt" viewBox="0 0 250.000000 250.000000"
 preserveAspectRatio="xMidYMid meet">
<metadata>
Created by potrace 1.16, written by Peter Selinger 2001-2019
</metadata>
<g transform="translate(0.000000,250.000000) scale(0.100000,-0.100000)"
fill="#000000" stroke="none">
<path d="M664 2097 c-88 -61 -213 -225 -307 -405 -29 -57 -72 -120 -104 -154
-29 -31 -53 -63 -53 -72 0 -8 11 -51 25 -95 59 -186 174 -291 448 -406 160
-66 189 -87 347 -240 159 -154 256 -226 394 -290 141 -66 208 -80 371 -80 115
0 154 4 218 23 191 55 337 165 337 253 0 33 -2 36 -175 185 -199 171 -293 261
-312 299 -9 16 -63 138 -120 269 -90 208 -104 250 -113 325 -23 185 -52 247
-126 271 -46 15 -93 1 -195 -61 -46 -28 -106 -60 -134 -71 -95 -38 -224 -21
-281 36 -32 32 -36 44 -49 150 -13 98 -82 124 -171 63z m116 -43 c6 -14 10
-40 10 -57 0 -134 102 -217 265 -217 78 0 138 20 251 87 118 69 146 79 184 63
38 -16 57 -65 76 -203 8 -62 25 -134 37 -160 25 -57 26 -57 -77 -81 -73 -17
-97 -35 -72 -55 8 -7 35 -4 86 9 41 11 82 20 91 20 10 0 25 -19 38 -51 13 -28
21 -52 19 -54 -2 -1 -39 -11 -83 -22 -70 -16 -80 -22 -83 -42 -4 -22 -1 -23
35 -17 21 3 64 13 96 21 l59 14 23 -52 c13 -29 20 -55 17 -58 -4 -3 -34 -12
-67 -19 -72 -15 -95 -26 -95 -45 0 -23 12 -24 95 -4 44 10 83 19 87 19 4 0 17
-18 28 -40 31 -61 69 -99 285 -289 110 -96 201 -183 203 -193 5 -24 -70 -102
-132 -137 -100 -57 -199 -83 -336 -89 -150 -5 -254 16 -387 78 -134 63 -218
125 -368 271 -160 155 -207 189 -361 253 -275 116 -386 217 -439 400 l-17 58
50 52 c30 31 67 85 92 136 142 285 352 504 390 404z"/>
</g>
</svg>
