<?xml version="1.0" encoding="iso-8859-1"?>
<!-- Generator: Adobe Illustrator 21.0.0, SVG Export Plug-In . SVG Version: 6.00 Build 0)  -->
<svg xmlns="http://www.w3.org/2000/svg" xmlns:xlink="http://www.w3.org/1999/xlink" version="1.1" id="Capa_1" x="0px" y="0px" viewBox="0 0 511.49 511.49" style="enable-background:new 0 0 511.49 511.49;" xml:space="preserve" width="512" height="512">
<g>
	<path d="M7.245,316.279c14.164,0,21.003,8.477,29.663,19.209c9.375,11.62,20.001,24.791,41.336,24.791   c21.335,0,31.961-13.17,41.336-24.791c8.659-10.732,15.498-19.209,29.662-19.209c14.163,0,21.002,8.477,29.66,19.209   c9.375,11.62,20,24.791,41.335,24.791c21.335,0,31.961-13.17,41.336-24.791c8.659-10.732,15.499-19.209,29.663-19.209   c14.165,0,21.004,8.477,29.664,19.209c9.375,11.62,20.001,24.791,41.337,24.791c21.337,0,31.963-13.17,41.339-24.791   c8.66-10.732,15.5-19.209,29.665-19.209s21.005,8.477,29.665,19.209c9.375,11.62,20.002,24.791,41.339,24.791   c9.652,0,9.668-15,0-15c-14.166,0-21.005-8.477-29.665-19.209c-9.375-11.62-20.002-24.791-41.339-24.791   s-31.963,13.17-41.339,24.79c-3.343,4.144-6.418,7.943-9.745,11.056V53.37c0-28.929-24.232-53.159-53.159-53.159   c-28.927,0-53.159,24.229-53.159,53.159v30.404c0,9.652,15,9.668,15,0V53.37c0-20.767,17.393-38.159,38.159-38.159   c20.767,0,38.159,17.389,38.159,38.159v74.144H157.333V55.01c0-27.965-22.137-52.112-50.014-54.487   C75.367-2.199,46.518,22.359,46.518,55.008v28.766c0,9.652,15,9.668,15,0V55.008c0-23.003,19.76-40.623,42.352-39.647   c21.11,0.912,38.463,18.306,38.463,39.649v246.771c-16.834,2.498-26.125,13.997-34.427,24.288   c-8.659,10.732-15.498,19.209-29.662,19.209s-21.003-8.477-29.663-19.209c-9.375-11.62-20.001-24.791-41.336-24.791   C-2.407,301.279-2.423,316.279,7.245,316.279z M362.237,345.279c-14.165,0-21.004-8.477-29.663-19.209   c-9.375-11.62-20.001-24.791-41.337-24.791c-21.335,0-31.961,13.17-41.336,24.791c-8.659,10.732-15.499,19.209-29.663,19.209   c-14.163,0-21.002-8.477-29.66-19.209c-8.106-10.047-17.153-21.247-33.244-24.096v-33.536h209.824v76.464   C365.616,345.147,363.983,345.279,362.237,345.279z M367.157,142.514v18.699c-0.412,0-165.412,0.054-165.956,0.054   c-9.628,0-9.541,14.976,0.121,14.976c0.422,0,165.422-0.03,165.834-0.03v43.529c0,0-11.706,0.057-17.004,0   c-9.589-0.171-10.408,15-0.159,15c3.369,0,17.163,0,17.163,0v18.696H157.333v-18.723c0,0,131.012,0.029,158.31-0.007   c9.628-0.012,9.642-15-0.02-15c-52.292,0.067-158.291,0.008-158.291,0.008v-43.473c0,0,8.063,0,11.634,0   c9.778,0,10.778-14.976,1.194-14.976c-3.955,0-8.383-0.086-12.828,0v-18.753H367.157z"/>
	<path d="M504.245,420.779c-14.166,0-21.005-8.477-29.665-19.209c-9.375-11.62-20.002-24.791-41.339-24.791   s-31.963,13.17-41.339,24.79c-8.66,10.733-15.5,19.21-29.666,19.21c-14.165,0-21.004-8.477-29.663-19.209   c-9.375-11.62-20.001-24.791-41.337-24.791c-21.335,0-31.961,13.17-41.336,24.791c-8.659,10.732-15.499,19.209-29.663,19.209   c-14.163,0-21.002-8.477-29.66-19.209c-9.375-11.62-20-24.791-41.335-24.791c-21.335,0-31.961,13.17-41.336,24.791   c-8.659,10.732-15.498,19.209-29.662,19.209s-21.003-8.477-29.663-19.209c-9.375-11.62-20.001-24.791-41.336-24.791   c-9.652,0-9.668,15,0,15c14.164,0,21.003,8.477,29.663,19.209c9.375,11.62,20.001,24.791,41.336,24.791   c21.335,0,31.961-13.17,41.336-24.791c8.659-10.732,15.498-19.209,29.662-19.209c14.163,0,21.002,8.477,29.66,19.209   c9.375,11.62,20,24.791,41.335,24.791c21.335,0,31.961-13.17,41.336-24.791c8.659-10.732,15.499-19.209,29.663-19.209   c14.165,0,21.004,8.477,29.664,19.209c9.375,11.62,20.001,24.791,41.337,24.791c21.337,0,31.963-13.17,41.339-24.791   c8.66-10.732,15.5-19.209,29.665-19.209s21.005,8.477,29.665,19.209c9.375,11.62,20.002,24.791,41.339,24.791   C513.897,435.779,513.913,420.779,504.245,420.779z"/>
	<path d="M504.245,496.279c-14.166,0-21.005-8.477-29.665-19.209c-9.375-11.62-20.002-24.791-41.339-24.791   s-31.963,13.17-41.339,24.79c-8.66,10.733-15.5,19.21-29.666,19.21c-14.165,0-21.004-8.477-29.663-19.209   c-9.375-11.62-20.001-24.791-41.337-24.791c-21.335,0-31.961,13.17-41.336,24.791c-8.659,10.732-15.499,19.209-29.663,19.209   c-14.163,0-21.002-8.477-29.66-19.209c-9.375-11.62-20-24.791-41.335-24.791c-21.335,0-31.961,13.17-41.336,24.791   c-8.659,10.732-15.498,19.209-29.662,19.209s-21.003-8.477-29.663-19.209c-9.375-11.62-20.001-24.791-41.336-24.791   c-9.652,0-9.668,15,0,15c14.164,0,21.003,8.477,29.663,19.209c9.375,11.62,20.001,24.791,41.336,24.791   c21.335,0,31.961-13.17,41.336-24.791c8.659-10.732,15.498-19.209,29.662-19.209c14.163,0,21.002,8.477,29.66,19.209   c9.375,11.62,20,24.791,41.335,24.791c21.335,0,31.961-13.17,41.336-24.791c8.659-10.732,15.499-19.209,29.663-19.209   c14.165,0,21.004,8.477,29.664,19.209c9.375,11.62,20.001,24.791,41.337,24.791c21.337,0,31.963-13.17,41.339-24.791   c8.66-10.732,15.5-19.209,29.665-19.209s21.005,8.477,29.665,19.209c9.375,11.62,20.002,24.791,41.339,24.791   C513.897,511.279,513.913,496.279,504.245,496.279z"/>
</g>















</svg>
