<?xml version="1.0" standalone="no"?>
<!DOCTYPE svg PUBLIC "-//W3C//DTD SVG 20010904//EN"
 "http://www.w3.org/TR/2001/REC-SVG-20010904/DTD/svg10.dtd">
<svg version="1.0" xmlns="http://www.w3.org/2000/svg"
 width="250.000000pt" height="250.000000pt" viewBox="0 0 250.000000 250.000000"
 preserveAspectRatio="xMidYMid meet">
<metadata>
Created by potrace 1.16, written by Peter Selinger 2001-2019
</metadata>
<g transform="translate(0.000000,250.000000) scale(0.100000,-0.100000)"
fill="#000000" stroke="none">
<path d="M992 2065 c-40 -83 -117 -166 -185 -196 -77 -34 -172 -33 -254 5 -67
31 -101 30 -84 -2 6 -10 38 -32 73 -47 89 -40 198 -41 280 -3 70 32 151 106
188 171 l27 48 27 -45 c40 -68 114 -136 186 -170 89 -42 188 -43 272 -4 70 32
151 106 188 171 l27 48 31 -49 c88 -144 248 -223 387 -192 75 16 155 58 155
80 0 29 -17 28 -83 -5 -80 -39 -185 -42 -261 -5 -67 32 -137 105 -178 187 -19
37 -41 69 -50 71 -11 2 -25 -18 -46 -63 -39 -83 -117 -166 -185 -196 -72 -32
-173 -32 -241 1 -67 32 -137 105 -178 187 -19 37 -41 69 -50 71 -11 2 -25 -18
-46 -63z"/>
<path d="M652 1385 c-37 -79 -110 -158 -177 -193 -42 -22 -63 -27 -130 -27
-68 0 -89 4 -138 28 -84 42 -122 21 -49 -27 54 -37 154 -60 222 -52 111 13
231 95 290 199 l27 48 28 -48 c41 -69 111 -135 180 -169 51 -25 71 -29 140
-29 65 1 91 5 137 27 70 32 151 106 188 171 l27 48 28 -48 c41 -69 112 -135
180 -168 51 -25 72 -29 145 -30 77 0 92 3 153 33 48 24 67 39 67 53 0 26 -17
24 -86 -8 -81 -38 -186 -39 -259 -3 -70 34 -137 105 -179 189 -20 39 -43 71
-50 71 -8 0 -28 -29 -44 -65 -37 -79 -110 -158 -177 -193 -41 -22 -64 -27
-125 -27 -132 0 -227 65 -299 205 -23 44 -48 80 -56 80 -7 0 -27 -29 -43 -65z"/>
<path d="M1023 758 c-5 -7 -22 -38 -36 -69 -33 -70 -110 -149 -174 -180 -73
-36 -187 -34 -266 4 -32 16 -65 26 -74 23 -28 -11 8 -49 73 -76 87 -37 208
-35 284 3 63 32 138 102 178 164 15 24 29 43 32 43 3 0 14 -17 25 -37 32 -60
119 -141 182 -171 49 -23 71 -27 143 -27 74 0 93 4 141 28 66 34 134 96 175
161 16 25 31 46 34 46 3 0 14 -17 25 -37 32 -60 119 -141 182 -171 49 -23 71
-27 143 -27 75 0 93 4 153 32 51 24 67 37 67 52 0 28 -18 26 -79 -5 -35 -18
-72 -28 -118 -31 -136 -10 -247 62 -323 207 -23 45 -47 79 -53 77 -7 -2 -27
-33 -45 -69 -39 -79 -113 -157 -179 -189 -38 -19 -64 -24 -128 -24 -70 0 -87
4 -133 29 -69 39 -123 98 -167 185 -36 72 -45 81 -62 59z"/>
</g>
</svg>
