<?xml version="1.0" standalone="no"?>
<!DOCTYPE svg PUBLIC "-//W3C//DTD SVG 20010904//EN"
 "http://www.w3.org/TR/2001/REC-SVG-20010904/DTD/svg10.dtd">
<svg version="1.0" xmlns="http://www.w3.org/2000/svg"
 width="250.000000pt" height="250.000000pt" viewBox="0 0 250.000000 250.000000"
 preserveAspectRatio="xMidYMid meet">
<metadata>
Created by potrace 1.16, written by Peter Selinger 2001-2019
</metadata>
<g transform="translate(0.000000,250.000000) scale(0.100000,-0.100000)"
fill="#000000" stroke="none">
<path d="M1089 1725 c-59 -19 -116 -80 -165 -177 -55 -110 -51 -108 -165 -108
-111 0 -124 6 -195 101 -41 53 -106 99 -141 99 -87 0 -144 -177 -163 -506 -5
-99 -15 -214 -21 -257 -9 -60 -9 -84 1 -107 16 -38 76 -74 148 -89 88 -18 353
-13 529 10 177 23 304 22 503 -6 167 -24 391 -16 522 18 185 49 333 140 378
231 21 45 28 114 15 157 -12 38 -51 85 -82 97 -15 7 -112 23 -214 36 l-186 24
-232 138 c-224 133 -235 140 -297 216 -100 121 -153 148 -235 123z m90 -50
c27 -14 151 -148 151 -163 0 -4 -22 -30 -50 -57 -27 -27 -50 -55 -50 -62 0
-31 27 -21 79 31 l58 57 77 -47 78 -47 -53 -53 c-49 -50 -52 -55 -37 -70 15
-16 21 -13 76 40 l60 57 68 -42 c38 -23 71 -43 73 -45 3 -3 -16 -26 -42 -52
-26 -26 -47 -55 -47 -65 0 -31 34 -18 87 35 l53 52 38 -21 c28 -16 87 -28 232
-47 218 -29 237 -37 258 -103 40 -124 -90 -245 -340 -317 -168 -48 -318 -52
-579 -16 -161 23 -280 23 -449 0 -217 -29 -460 -32 -543 -7 -77 24 -101 48
-93 95 3 21 10 109 16 197 25 396 61 553 127 563 22 3 57 -28 135 -120 61 -72
91 -82 221 -75 117 6 115 5 182 127 53 97 96 147 140 159 42 13 43 13 74 -4z"/>
</g>
</svg>
