<?xml version="1.0" standalone="no"?>
<!DOCTYPE svg PUBLIC "-//W3C//DTD SVG 20010904//EN"
 "http://www.w3.org/TR/2001/REC-SVG-20010904/DTD/svg10.dtd">
<svg version="1.0" xmlns="http://www.w3.org/2000/svg"
 width="250.000000pt" height="250.000000pt" viewBox="0 0 250.000000 250.000000"
 preserveAspectRatio="xMidYMid meet">
<metadata>
Created by potrace 1.16, written by Peter Selinger 2001-2019
</metadata>
<g transform="translate(0.000000,250.000000) scale(0.100000,-0.100000)"
fill="#000000" stroke="none">
<path d="M995 2115 c-124 -23 -248 -79 -346 -156 -37 -29 -37 -29 -183 -29
-140 0 -146 -1 -160 -22 -14 -23 -90 -844 -103 -1113 -5 -109 -4 -124 15 -161
39 -77 133 -134 252 -153 94 -15 386 -13 431 3 20 7 58 30 83 51 l47 38 87 -7
c48 -3 161 -22 252 -40 469 -97 742 -59 936 129 53 51 64 67 73 112 19 93 -9
184 -73 241 -40 35 -44 36 -286 93 -108 25 -187 49 -205 62 -16 12 -147 119
-291 239 l-261 217 -47 238 c-29 143 -54 245 -63 256 -19 20 -58 21 -158 2z
m129 -52 c2 -10 21 -101 41 -203 20 -102 39 -193 41 -202 5 -17 -21 -18 -441
-18 l-447 0 5 43 c4 23 9 77 13 120 l6 77 143 0 c136 0 145 1 172 24 88 73
215 135 329 159 96 21 131 21 138 0z m150 -516 l49 -43 -74 -64 c-84 -72 -89
-78 -82 -97 9 -23 26 -14 111 58 73 63 85 69 100 57 73 -57 172 -143 172 -148
0 -4 -31 -34 -70 -65 -42 -34 -70 -65 -70 -76 0 -33 30 -21 106 44 41 34 78
61 82 59 22 -8 192 -156 185 -162 -131 -107 -152 -133 -118 -146 9 -4 44 20
90 60 42 36 82 66 89 66 8 0 90 -18 182 -40 93 -22 180 -43 193 -46 14 -3 41
-22 62 -43 44 -44 64 -105 54 -170 -6 -39 -16 -55 -63 -101 -65 -63 -167 -120
-262 -146 -51 -14 -100 -18 -225 -17 -163 0 -228 8 -461 57 -66 14 -160 28
-210 32 l-89 6 -50 -36 c-93 -68 -97 -68 -320 -64 -216 5 -266 15 -333 65 -54
40 -72 79 -72 153 0 65 58 814 66 838 3 9 102 12 456 12 l453 0 49 -43z"/>
</g>
</svg>
