<?xml version="1.0"?>
<svg xmlns="http://www.w3.org/2000/svg" viewBox="0 0 64 64" width="512px" height="512px"><g><g id="Map"><path d="M59.585,6.189a1,1,0,0,0-.9-.138L51.07,8.589a10.99,10.99,0,0,0-20.14,0L23.316,6.051v.006a.994.994,0,0,0-.631-.006l-18,6A1,1,0,0,0,4,13V61a1,1,0,0,0,1,1,1.01,1.01,0,0,0,.316-.051L23,56.054l17.684,5.895v0a.986.986,0,0,0,.632,0l18-6A1,1,0,0,0,60,55V7A1,1,0,0,0,59.585,6.189ZM41,4a9.011,9.011,0,0,1,9,9c0,3.873-5.927,11.774-9,15.458C37.926,24.775,32,16.875,32,13A9.011,9.011,0,0,1,41,4ZM6,59.613V47.721l1.213-.4a1,1,0,1,0-.631-1.9L6,45.613V13.721L22,8.387V40.279l-.24.08A.995.995,0,0,0,22,42.3V54.279Zm36,0V47.721l1.213-.4a1,1,0,1,0-.631-1.9L42,45.613V34a1,1,0,0,0-2,0V45.694a1,1,0,0,0-.24,1.947l.24.08V59.612L24,54.279V42.387l.582.194a1,1,0,0,0,.631-1.9L24,40.279V8.388l6.3,2.1A10.946,10.946,0,0,0,30,13c0,5.831,9.828,17.177,10.246,17.657a1,1,0,0,0,1.508,0C42.172,30.177,52,18.831,52,13a10.946,10.946,0,0,0-.3-2.512l6.3-2.1V40.279l-.24.08A.995.995,0,0,0,58,42.3V54.279Z" data-original="#000000" class="active-path" data-old_color="#000000" fill="#FFFFFF"/><path d="M45,12a4,4,0,1,0-4,4A4,4,0,0,0,45,12Zm-6,0a2,2,0,1,1,2,2A2,2,0,0,1,39,12Z" data-original="#000000" class="active-path" data-old_color="#000000" fill="#FFFFFF"/><path d="M53.966,41.624l-1.9.632a1,1,0,1,0,.632,1.9l1.9-.633a1,1,0,0,0-.632-1.9Z" data-original="#000000" class="active-path" data-old_color="#000000" fill="#FFFFFF"/><path d="M48.273,43.521l-1.9.633a1,1,0,1,0,.632,1.9l1.9-.632a1,1,0,0,0-.632-1.9Z" data-original="#000000" class="active-path" data-old_color="#000000" fill="#FFFFFF"/><path d="M36.6,44.479l-1.9-.633a1,1,0,0,0-.632,1.9l1.9.632a1,1,0,0,0,.632-1.9Z" data-original="#000000" class="active-path" data-old_color="#000000" fill="#FFFFFF"/><path d="M30.905,42.581l-1.9-.632a1,1,0,1,0-.632,1.9l1.9.633a1,1,0,1,0,.632-1.9Z" data-original="#000000" class="active-path" data-old_color="#000000" fill="#FFFFFF"/><path d="M17.966,41.624l-1.9.632a1,1,0,1,0,.632,1.9l1.9-.633a1,1,0,0,0-.632-1.9Z" data-original="#000000" class="active-path" data-old_color="#000000" fill="#FFFFFF"/><path d="M12.273,43.521l-1.9.633a1,1,0,1,0,.632,1.9l1.9-.632a1,1,0,0,0-.632-1.9Z" data-original="#000000" class="active-path" data-old_color="#000000" fill="#FFFFFF"/></g></g> </svg>
